<svg width="102" height="5" viewBox="0 0 102 5" fill="none" xmlns="http://www.w3.org/2000/svg">
<path d="M0.808594 4.18041L2.57592 0.314387H2.97909L4.74642 4.18041H4.31563L2.6919 0.551872H2.85759L1.23386 4.18041H0.808594ZM1.50448 3.14763L1.62598 2.81626H3.8738L3.9953 3.14763H1.50448Z" fill="white"/>
<path d="M8.3917 4.21355C8.10083 4.21355 7.83205 4.16569 7.58536 4.06996C7.33867 3.97054 7.12512 3.83247 6.9447 3.65574C6.76429 3.47901 6.62253 3.27098 6.51944 3.03165C6.42003 2.79233 6.37032 2.53091 6.37032 2.2474C6.37032 1.96389 6.42003 1.70247 6.51944 1.46315C6.62253 1.22382 6.76429 1.01579 6.9447 0.839062C7.1288 0.66233 7.34419 0.526098 7.59088 0.430368C7.83757 0.330956 8.10635 0.28125 8.39722 0.28125C8.67705 0.28125 8.94031 0.329115 9.187 0.424845C9.43369 0.516894 9.64172 0.656807 9.81109 0.844585L9.55151 1.10416C9.39319 0.942156 9.21829 0.826176 9.02683 0.756219C8.83537 0.68258 8.62919 0.645761 8.40827 0.645761C8.17631 0.645761 7.96092 0.686262 7.76209 0.767265C7.56327 0.844585 7.39022 0.956884 7.24294 1.10416C7.09566 1.24776 6.97968 1.41713 6.895 1.61227C6.81399 1.80373 6.77349 2.01544 6.77349 2.2474C6.77349 2.47936 6.81399 2.69291 6.895 2.88806C6.97968 3.07952 7.09566 3.24889 7.24294 3.39616C7.39022 3.53976 7.56327 3.65206 7.76209 3.73306C7.96092 3.81038 8.17631 3.84904 8.40827 3.84904C8.62919 3.84904 8.83537 3.81222 9.02683 3.73858C9.21829 3.66494 9.39319 3.54712 9.55151 3.38512L9.81109 3.64469C9.64172 3.83247 9.43369 3.97423 9.187 4.06996C8.94031 4.16569 8.67521 4.21355 8.3917 4.21355Z" fill="white"/>
<path d="M13.6611 4.21355C13.3702 4.21355 13.1014 4.16569 12.8548 4.06996C12.6081 3.97054 12.3945 3.83247 12.2141 3.65574C12.0337 3.47901 11.8919 3.27098 11.7888 3.03165C11.6894 2.79233 11.6397 2.53091 11.6397 2.2474C11.6397 1.96389 11.6894 1.70247 11.7888 1.46315C11.8919 1.22382 12.0337 1.01579 12.2141 0.839062C12.3982 0.66233 12.6136 0.526098 12.8603 0.430368C13.107 0.330956 13.3758 0.28125 13.6666 0.28125C13.9465 0.28125 14.2097 0.329115 14.4564 0.424845C14.7031 0.516894 14.9111 0.656807 15.0805 0.844585L14.8209 1.10416C14.6626 0.942156 14.4877 0.826176 14.2962 0.756219C14.1048 0.68258 13.8986 0.645761 13.6777 0.645761C13.4457 0.645761 13.2303 0.686262 13.0315 0.767265C12.8327 0.844585 12.6596 0.956884 12.5123 1.10416C12.3651 1.24776 12.2491 1.41713 12.1644 1.61227C12.0834 1.80373 12.0429 2.01544 12.0429 2.2474C12.0429 2.47936 12.0834 2.69291 12.1644 2.88806C12.2491 3.07952 12.3651 3.24889 12.5123 3.39616C12.6596 3.53976 12.8327 3.65206 13.0315 3.73306C13.2303 3.81038 13.4457 3.84904 13.6777 3.84904C13.8986 3.84904 14.1048 3.81222 14.2962 3.73858C14.4877 3.66494 14.6626 3.54712 14.8209 3.38512L15.0805 3.64469C14.9111 3.83247 14.7031 3.97423 14.4564 4.06996C14.2097 4.16569 13.9446 4.21355 13.6611 4.21355Z" fill="white"/>
<path d="M18.8899 4.21355C18.3965 4.21355 18.0081 4.0718 17.7246 3.78829C17.4411 3.50478 17.2993 3.08504 17.2993 2.52907V0.314387H17.708V2.5125C17.708 2.96906 17.8111 3.30596 18.0173 3.52319C18.2235 3.74042 18.5143 3.84904 18.8899 3.84904C19.2691 3.84904 19.5619 3.74042 19.768 3.52319C19.9742 3.30596 20.0773 2.96906 20.0773 2.5125V0.314387H20.475V2.52907C20.475 3.08504 20.3332 3.50478 20.0497 3.78829C19.7699 4.0718 19.3833 4.21355 18.8899 4.21355Z" fill="white"/>
<path d="M23.0873 4.18041V0.314387H24.5343C24.862 0.314387 25.1436 0.367775 25.3793 0.474551C25.6149 0.577645 25.7953 0.728605 25.9205 0.927429C26.0494 1.12257 26.1138 1.36006 26.1138 1.63988C26.1138 1.91235 26.0494 2.14799 25.9205 2.34681C25.7953 2.54196 25.6149 2.69291 25.3793 2.79969C25.1436 2.90278 24.862 2.95433 24.5343 2.95433H23.3137L23.496 2.76655V4.18041H23.0873ZM25.7272 4.18041L24.7331 2.7776H25.1749L26.1746 4.18041H25.7272ZM23.496 2.79969L23.3137 2.60639H24.5232C24.9098 2.60639 25.2025 2.5217 25.4014 2.35234C25.6039 2.18297 25.7051 1.94548 25.7051 1.63988C25.7051 1.3306 25.6039 1.09127 25.4014 0.921906C25.2025 0.752537 24.9098 0.667853 24.5232 0.667853H23.3137L23.496 0.474551V2.79969Z" fill="white"/>
<path d="M27.8406 4.18041L29.6079 0.314387H30.0111L31.7784 4.18041H31.3476L29.7239 0.551872H29.8896L28.2658 4.18041H27.8406ZM28.5365 3.14763L28.658 2.81626H30.9058L31.0273 3.14763H28.5365Z" fill="white"/>
<path d="M34.3556 4.18041V0.667853H32.997V0.314387H36.1229V0.667853H34.7643V4.18041H34.3556Z" fill="white"/>
<path d="M38.5211 2.04305H40.5645V2.391H38.5211V2.04305ZM38.5653 3.82695H40.8904V4.18041H38.1566V0.314387H40.8076V0.667853H38.5653V3.82695Z" fill="white"/>
<path d="M47.7369 4.21355C47.4461 4.21355 47.1773 4.16569 46.9306 4.06996C46.6839 3.97054 46.4704 3.83247 46.2899 3.65574C46.1095 3.47901 45.9678 3.27098 45.8647 3.03165C45.7653 2.79233 45.7156 2.53091 45.7156 2.2474C45.7156 1.96389 45.7653 1.70247 45.8647 1.46315C45.9678 1.22382 46.1095 1.01579 46.2899 0.839062C46.474 0.66233 46.6894 0.526098 46.9361 0.430368C47.1828 0.330956 47.4516 0.28125 47.7425 0.28125C48.0223 0.28125 48.2855 0.329115 48.5322 0.424845C48.7789 0.516894 48.9869 0.656807 49.1563 0.844585L48.8967 1.10416C48.7384 0.942156 48.5635 0.826176 48.3721 0.756219C48.1806 0.68258 47.9744 0.645761 47.7535 0.645761C47.5215 0.645761 47.3061 0.686262 47.1073 0.767265C46.9085 0.844585 46.7355 0.956884 46.5882 1.10416C46.4409 1.24776 46.3249 1.41713 46.2402 1.61227C46.1592 1.80373 46.1187 2.01544 46.1187 2.2474C46.1187 2.47936 46.1592 2.69291 46.2402 2.88806C46.3249 3.07952 46.4409 3.24889 46.5882 3.39616C46.7355 3.53976 46.9085 3.65206 47.1073 3.73306C47.3061 3.81038 47.5215 3.84904 47.7535 3.84904C47.9744 3.84904 48.1806 3.81222 48.3721 3.73858C48.5635 3.66494 48.7384 3.54712 48.8967 3.38512L49.1563 3.64469C48.9869 3.83247 48.7789 3.97423 48.5322 4.06996C48.2855 4.16569 48.0204 4.21355 47.7369 4.21355Z" fill="white"/>
<path d="M50.6926 4.18041L52.46 0.314387H52.8631L54.6305 4.18041H54.1997L52.5759 0.551872H52.7416L51.1179 4.18041H50.6926ZM51.3885 3.14763L51.51 2.81626H53.7578L53.8793 3.14763H51.3885Z" fill="white"/>
<path d="M56.6507 4.18041V0.314387H58.0977C58.4254 0.314387 58.7071 0.367775 58.9427 0.474551C59.1784 0.577645 59.3588 0.728605 59.484 0.927429C59.6128 1.12257 59.6773 1.36006 59.6773 1.63988C59.6773 1.91235 59.6128 2.14799 59.484 2.34681C59.3588 2.54196 59.1784 2.69291 58.9427 2.79969C58.7071 2.90278 58.4254 2.95433 58.0977 2.95433H56.8772L57.0594 2.76655V4.18041H56.6507ZM59.2907 4.18041L58.2965 2.7776H58.7384L59.738 4.18041H59.2907ZM57.0594 2.79969L56.8772 2.60639H58.0867C58.4733 2.60639 58.766 2.5217 58.9648 2.35234C59.1673 2.18297 59.2686 1.94548 59.2686 1.63988C59.2686 1.3306 59.1673 1.09127 58.9648 0.921906C58.766 0.752537 58.4733 0.667853 58.0867 0.667853H56.8772L57.0594 0.474551V2.79969Z" fill="white"/>
<path d="M62.0226 4.18041V0.314387H63.4696C63.7973 0.314387 64.079 0.367775 64.3146 0.474551C64.5502 0.577645 64.7307 0.728605 64.8558 0.927429C64.9847 1.12257 65.0491 1.36006 65.0491 1.63988C65.0491 1.91235 64.9847 2.14799 64.8558 2.34681C64.7307 2.54196 64.5502 2.69291 64.3146 2.79969C64.079 2.90278 63.7973 2.95433 63.4696 2.95433H62.249L62.4313 2.76655V4.18041H62.0226ZM64.6625 4.18041L63.6684 2.7776H64.1102L65.1099 4.18041H64.6625ZM62.4313 2.79969L62.249 2.60639H63.4585C63.8451 2.60639 64.1379 2.5217 64.3367 2.35234C64.5392 2.18297 64.6404 1.94548 64.6404 1.63988C64.6404 1.3306 64.5392 1.09127 64.3367 0.921906C64.1379 0.752537 63.8451 0.667853 63.4585 0.667853H62.249L62.4313 0.474551V2.79969Z" fill="white"/>
<path d="M67.3945 4.18041V0.314387H67.8032V4.18041H67.3945Z" fill="white"/>
<path d="M70.8063 2.04305H72.8498V2.391H70.8063V2.04305ZM70.8505 3.82695H73.1756V4.18041H70.4418V0.314387H73.0928V0.667853H70.8505V3.82695Z" fill="white"/>
<path d="M75.517 4.18041V0.314387H76.964C77.2917 0.314387 77.5734 0.367775 77.809 0.474551C78.0447 0.577645 78.2251 0.728605 78.3503 0.927429C78.4791 1.12257 78.5436 1.36006 78.5436 1.63988C78.5436 1.91235 78.4791 2.14799 78.3503 2.34681C78.2251 2.54196 78.0447 2.69291 77.809 2.79969C77.5734 2.90278 77.2917 2.95433 76.964 2.95433H75.7434L75.9257 2.76655V4.18041H75.517ZM78.157 4.18041L77.1628 2.7776H77.6047L78.6043 4.18041H78.157ZM75.9257 2.79969L75.7434 2.60639H76.953C77.3396 2.60639 77.6323 2.5217 77.8311 2.35234C78.0336 2.18297 78.1349 1.94548 78.1349 1.63988C78.1349 1.3306 78.0336 1.09127 77.8311 0.921906C77.6323 0.752537 77.3396 0.667853 76.953 0.667853H75.7434L75.9257 0.474551V2.79969Z" fill="white"/>
<path d="M83.7151 4.18041V0.314387H84.1237V4.18041H83.7151Z" fill="white"/>
<path d="M86.7624 4.18041V0.314387H87.0993L89.7668 3.67231H89.5901V0.314387H89.9933V4.18041H89.6564L86.9943 0.822494H87.1711V4.18041H86.7624Z" fill="white"/>
<path d="M93.0003 2.18665H95.0438V2.54011H93.0003V2.18665ZM93.0445 4.18041H92.6358V0.314387H95.2868V0.667853H93.0445V4.18041Z" fill="white"/>
<path d="M99.153 4.21355C98.8621 4.21355 98.5915 4.16569 98.3411 4.06996C98.0944 3.97054 97.879 3.83247 97.6949 3.65574C97.5145 3.47532 97.3728 3.2673 97.2697 3.03165C97.1703 2.79233 97.1205 2.53091 97.1205 2.2474C97.1205 1.96389 97.1703 1.70432 97.2697 1.46867C97.3728 1.22935 97.5145 1.02132 97.6949 0.844585C97.879 0.664171 98.0944 0.526098 98.3411 0.430368C98.5878 0.330956 98.8584 0.28125 99.153 0.28125C99.4439 0.28125 99.7126 0.330956 99.9593 0.430368C100.206 0.526098 100.42 0.66233 100.6 0.839062C100.784 1.01579 100.926 1.22382 101.025 1.46315C101.128 1.70247 101.18 1.96389 101.18 2.2474C101.18 2.53091 101.128 2.79233 101.025 3.03165C100.926 3.27098 100.784 3.47901 100.6 3.65574C100.42 3.83247 100.206 3.97054 99.9593 4.06996C99.7126 4.16569 99.4439 4.21355 99.153 4.21355ZM99.153 3.84904C99.3849 3.84904 99.5985 3.81038 99.7936 3.73306C99.9925 3.65206 100.164 3.53976 100.307 3.39616C100.455 3.24889 100.569 3.07952 100.65 2.88806C100.731 2.69291 100.771 2.47936 100.771 2.2474C100.771 2.01544 100.731 1.80373 100.65 1.61227C100.569 1.41713 100.455 1.24776 100.307 1.10416C100.164 0.956884 99.9925 0.844585 99.7936 0.767265C99.5985 0.686262 99.3849 0.645761 99.153 0.645761C98.921 0.645761 98.7056 0.686262 98.5068 0.767265C98.308 0.844585 98.1349 0.956884 97.9876 1.10416C97.844 1.24776 97.7299 1.41713 97.6452 1.61227C97.5642 1.80373 97.5237 2.01544 97.5237 2.2474C97.5237 2.47568 97.5642 2.68739 97.6452 2.88253C97.7299 3.07768 97.844 3.24889 97.9876 3.39616C98.1349 3.53976 98.308 3.65206 98.5068 3.73306C98.7056 3.81038 98.921 3.84904 99.153 3.84904Z" fill="white"/>
</svg>
