<svg width="125" height="13" viewBox="0 0 125 13" fill="none" xmlns="http://www.w3.org/2000/svg">
<path d="M0 6.47645C0 5.41249 0.239912 4.45806 0.719736 3.61315C1.19956 2.75781 1.8515 2.09023 2.67554 1.6104C3.51002 1.13058 4.43316 0.890667 5.44496 0.890667C6.63409 0.890667 7.67197 1.17752 8.5586 1.75122C9.44523 2.32492 10.092 3.13854 10.4988 4.19207H8.7933C8.4908 3.53492 8.0527 3.02901 7.479 2.67436C6.91573 2.31971 6.23771 2.14238 5.44496 2.14238C4.6835 2.14238 4.00027 2.31971 3.39528 2.67436C2.79028 3.02901 2.31567 3.53492 1.97145 4.19207C1.62723 4.83879 1.45512 5.60025 1.45512 6.47645C1.45512 7.34222 1.62723 8.10368 1.97145 8.76083C2.31567 9.40755 2.79028 9.90823 3.39528 10.2629C4.00027 10.6175 4.6835 10.7949 5.44496 10.7949C6.23771 10.7949 6.91573 10.6228 7.479 10.2785C8.0527 9.92388 8.4908 9.41798 8.7933 8.76083H10.4988C10.092 9.80392 9.44523 10.6123 8.5586 11.186C7.67197 11.7493 6.63409 12.0309 5.44496 12.0309C4.43316 12.0309 3.51002 11.7962 2.67554 11.3268C1.8515 10.847 1.19956 10.1847 0.719736 9.33974C0.239912 8.49484 0 7.5404 0 6.47645Z" fill="white"/>
<path d="M19.0646 9.51186H14.3081L13.4319 11.9371H11.9298L15.8727 1.09407H17.5156L21.4428 11.9371H19.9408L19.0646 9.51186ZM18.6578 8.35402L16.6863 2.84647L14.7149 8.35402H18.6578Z" fill="white"/>
<path d="M28.9035 11.9371L26.3062 7.47782H24.5851V11.9371H23.1613V1.03149H26.6817C27.5057 1.03149 28.1994 1.1723 28.7627 1.45394C29.3364 1.73558 29.764 2.11631 30.0457 2.59613C30.3273 3.07595 30.4681 3.62358 30.4681 4.23901C30.4681 4.99003 30.2491 5.6524 29.811 6.2261C29.3833 6.79981 28.7366 7.18054 27.8708 7.36829L30.609 11.9371H28.9035ZM24.5851 6.33563H26.6817C27.4536 6.33563 28.0325 6.14787 28.4185 5.77236C28.8044 5.38641 28.9974 4.87529 28.9974 4.23901C28.9974 3.59229 28.8044 3.0916 28.4185 2.73695C28.0429 2.38229 27.464 2.20497 26.6817 2.20497H24.5851V6.33563Z" fill="white"/>
<path d="M38.4228 11.9371L35.8255 7.47782H34.1043V11.9371H32.6805V1.03149H36.201C37.025 1.03149 37.7187 1.1723 38.2819 1.45394C38.8556 1.73558 39.2833 2.11631 39.565 2.59613C39.8466 3.07595 39.9874 3.62358 39.9874 4.23901C39.9874 4.99003 39.7684 5.6524 39.3303 6.2261C38.9026 6.79981 38.2559 7.18054 37.3901 7.36829L40.1282 11.9371H38.4228ZM34.1043 6.33563H36.201C36.9729 6.33563 37.5518 6.14787 37.9377 5.77236C38.3237 5.38641 38.5166 4.87529 38.5166 4.23901C38.5166 3.59229 38.3237 3.0916 37.9377 2.73695C37.5622 2.38229 36.9833 2.20497 36.201 2.20497H34.1043V6.33563Z" fill="white"/>
<path d="M43.6236 1.03149V11.9371H42.1998V1.03149H43.6236Z" fill="white"/>
<path d="M47.4741 2.18932V5.83494H51.4483V7.00842H47.4741V10.7636H51.9177V11.9371H46.0503V1.01584H51.9177V2.18932H47.4741Z" fill="white"/>
<path d="M59.8144 11.9371L57.2171 7.47782H55.496V11.9371H54.0721V1.03149H57.5926C58.4166 1.03149 59.1103 1.1723 59.6736 1.45394C60.2473 1.73558 60.6749 2.11631 60.9566 2.59613C61.2382 3.07595 61.379 3.62358 61.379 4.23901C61.379 4.99003 61.16 5.6524 60.7219 6.2261C60.2942 6.79981 59.6475 7.18054 58.7817 7.36829L61.5198 11.9371H59.8144ZM55.496 6.33563H57.5926C58.3645 6.33563 58.9434 6.14787 59.3293 5.77236C59.7153 5.38641 59.9083 4.87529 59.9083 4.23901C59.9083 3.59229 59.7153 3.0916 59.3293 2.73695C58.9538 2.38229 58.3749 2.20497 57.5926 2.20497H55.496V6.33563Z" fill="white"/>
<path d="M65.6567 10.2003H69.2554V11.9371H63.4662V1.01584H65.6567V10.2003Z" fill="white"/>
<path d="M75.7172 12.0466C74.6949 12.0466 73.7561 11.8067 72.9008 11.3268C72.0455 10.847 71.3674 10.1847 70.8668 9.33974C70.3661 8.48441 70.1157 7.51954 70.1157 6.44515C70.1157 5.3812 70.3661 4.42676 70.8668 3.58185C71.3674 2.72652 72.0455 2.05893 72.9008 1.57911C73.7561 1.09929 74.6949 0.859375 75.7172 0.859375C76.7498 0.859375 77.6886 1.09929 78.5335 1.57911C79.3889 2.05893 80.0616 2.72652 80.5519 3.58185C81.0526 4.42676 81.3029 5.3812 81.3029 6.44515C81.3029 7.51954 81.0526 8.48441 80.5519 9.33974C80.0616 10.1847 79.3889 10.847 78.5335 11.3268C77.6782 11.8067 76.7394 12.0466 75.7172 12.0466ZM75.7172 10.0908C76.3743 10.0908 76.9532 9.94474 77.4539 9.65267C77.9546 9.35018 78.3458 8.92251 78.6274 8.36967C78.909 7.81682 79.0498 7.17532 79.0498 6.44515C79.0498 5.71499 78.909 5.0787 78.6274 4.53629C78.3458 3.98345 77.9546 3.56099 77.4539 3.26893C76.9532 2.97686 76.3743 2.83083 75.7172 2.83083C75.06 2.83083 74.4759 2.97686 73.9648 3.26893C73.4641 3.56099 73.0729 3.98345 72.7913 4.53629C72.5096 5.0787 72.3688 5.71499 72.3688 6.44515C72.3688 7.17532 72.5096 7.81682 72.7913 8.36967C73.0729 8.92251 73.4641 9.35018 73.9648 9.65267C74.4759 9.94474 75.06 10.0908 75.7172 10.0908Z" fill="white"/>
<path d="M88.002 12.0466C86.9798 12.0466 86.041 11.8067 85.1857 11.3268C84.3303 10.847 83.6523 10.1847 83.1516 9.33974C82.651 8.48441 82.4006 7.51954 82.4006 6.44515C82.4006 5.3812 82.651 4.42676 83.1516 3.58185C83.6523 2.72652 84.3303 2.05893 85.1857 1.57911C86.041 1.09929 86.9798 0.859375 88.002 0.859375C89.0347 0.859375 89.9735 1.09929 90.8184 1.57911C91.6737 2.05893 92.3465 2.72652 92.8368 3.58185C93.3375 4.42676 93.5878 5.3812 93.5878 6.44515C93.5878 7.51954 93.3375 8.48441 92.8368 9.33974C92.3465 10.1847 91.6737 10.847 90.8184 11.3268C89.9631 11.8067 89.0243 12.0466 88.002 12.0466ZM88.002 10.0908C88.6592 10.0908 89.2381 9.94474 89.7388 9.65267C90.2395 9.35018 90.6306 8.92251 90.9123 8.36967C91.1939 7.81682 91.3347 7.17532 91.3347 6.44515C91.3347 5.71499 91.1939 5.0787 90.9123 4.53629C90.6306 3.98345 90.2395 3.56099 89.7388 3.26893C89.2381 2.97686 88.6592 2.83083 88.002 2.83083C87.3449 2.83083 86.7608 2.97686 86.2496 3.26893C85.749 3.56099 85.3578 3.98345 85.0762 4.53629C84.7945 5.0787 84.6537 5.71499 84.6537 6.44515C84.6537 7.17532 84.7945 7.81682 85.0762 8.36967C85.3578 8.92251 85.749 9.35018 86.2496 9.65267C86.7608 9.94474 87.3449 10.0908 88.002 10.0908Z" fill="white"/>
<path d="M101.382 11.9371L97.408 7.07101V11.9371H95.2175V1.01584H97.408V5.91317L101.382 1.01584H104.026L99.5203 6.42951L104.152 11.9371H101.382Z" fill="white"/>
<path d="M107.752 1.01584V7.7751C107.752 8.5157 107.945 9.08419 108.331 9.48056C108.716 9.86651 109.259 10.0595 109.958 10.0595C110.667 10.0595 111.215 9.86651 111.601 9.48056C111.987 9.08419 112.18 8.5157 112.18 7.7751V1.01584H114.386V7.75945C114.386 8.68781 114.182 9.47535 113.776 10.1221C113.379 10.7584 112.842 11.2382 112.164 11.5615C111.496 11.8849 110.751 12.0466 109.926 12.0466C109.113 12.0466 108.372 11.8849 107.705 11.5615C107.048 11.2382 106.526 10.7584 106.14 10.1221C105.754 9.47535 105.561 8.68781 105.561 7.75945V1.01584H107.752Z" fill="white"/>
<path d="M124.466 4.39547C124.466 4.9796 124.325 5.52723 124.044 6.03835C123.773 6.54946 123.34 6.96149 122.745 7.27441C122.161 7.58734 121.42 7.74381 120.523 7.74381H118.693V11.9371H116.502V1.01584H120.523C121.368 1.01584 122.088 1.16187 122.682 1.45394C123.277 1.74601 123.72 2.1476 124.012 2.65871C124.315 3.16983 124.466 3.74875 124.466 4.39547ZM120.429 5.97576C121.034 5.97576 121.483 5.84016 121.775 5.56895C122.067 5.28732 122.213 4.89616 122.213 4.39547C122.213 3.33151 121.619 2.79953 120.429 2.79953H118.693V5.97576H120.429Z" fill="white"/>
</svg>
