<svg width="44" height="43" viewBox="0 0 44 43" fill="none" xmlns="http://www.w3.org/2000/svg">
<path d="M22.1954 42.4689C10.4857 42.4689 0.960938 32.9441 0.960938 21.2344C0.960938 9.52477 10.4857 0 22.1954 0C33.9051 0 43.4298 9.52477 43.4298 21.2344C43.4298 22.0056 42.804 22.6315 42.0328 22.6315C41.2617 22.6315 40.6358 22.0056 40.6358 21.2344C40.6358 11.0671 32.3628 2.79401 22.1954 2.79401C12.028 2.79401 3.75494 11.0671 3.75494 21.2344C3.75494 31.4018 12.028 39.6749 22.1954 39.6749C22.9665 39.6749 23.5924 40.3008 23.5924 41.0719C23.5924 41.843 22.9665 42.4689 22.1954 42.4689Z" fill="#FF7901"/>
</svg>
